<?xml version="1.0" encoding="UTF-8" standalone="no"?>
<svg
   xmlns:dc="http://purl.org/dc/elements/1.1/"
   xmlns:cc="http://creativecommons.org/ns#"
   xmlns:rdf="http://www.w3.org/1999/02/22-rdf-syntax-ns#"
   xmlns:svg="http://www.w3.org/2000/svg"
   xmlns="http://www.w3.org/2000/svg"
   viewBox="0 0 85.919998 136.57333"
   height="136.57333"
   width="85.919998"
   xml:space="preserve"
   id="svg2"
   version="1.1"><metadata
     id="metadata8"><rdf:RDF><cc:Work
         rdf:about=""><dc:format>image/svg+xml</dc:format><dc:type
           rdf:resource="http://purl.org/dc/dcmitype/StillImage" /></cc:Work></rdf:RDF></metadata><defs
     id="defs6" /><g
     transform="matrix(1.3333333,0,0,-1.3333333,0,136.57333)"
     id="g10"><g
       transform="scale(0.1)"
       id="g12"><path
         id="path14"
         style="fill:#1c63b7;fill-opacity:1;fill-rule:nonzero;stroke:none"
         d="m 66.8008,260.434 c 0,1.875 0,3.914 -0.168,5.781 -1.3594,15.469 -11.0469,23.113 -26.3515,23.113 -10.875,0 -21.754,-5.098 -21.754,-17.332 0,-7.824 6.1211,-12.578 12.2383,-16.32 5.4414,-3.399 11.2227,-6.453 17,-9.52 15.1289,-7.812 34.168,-15.468 34.168,-35.871 0,-22.09 -20.7422,-32.461 -40.4609,-32.461 -14.1055,0 -30.5938,2.719 -41.4727,12.578 3.0625,8.672 5.26953,17.336 7.13672,26.352 l 5.26958,-0.688 c -0.1719,-1.699 -0.336,-3.562 -0.336,-5.437 0,-18.359 12.75,-27.363 30.2539,-27.363 2.211,0 4.418,0.164 6.8008,0.507 9.8594,1.532 19.5469,8.672 19.5469,19.551 0,30.254 -63.2344,29.403 -63.2344,63.067 0,21.757 21.7617,28.211 39.9492,28.211 11.8985,0 21.9297,-3.055 32.4649,-8.164 -2.8907,-8.497 -4.25,-17.5 -5.7813,-26.512 l -5.2695,0.508" /><path
         id="path16"
         style="fill:#1c63b7;fill-opacity:1;fill-rule:nonzero;stroke:none"
         d="m 107.949,183.773 c 2.379,0 4.934,0 7.309,0 5.781,0.176 4.59,16.493 4.59,20.227 v 29.578 c 0,2.383 -0.168,15.645 -0.848,17.168 -1.02,2.551 -3.742,2.723 -6.117,2.723 -9.863,0 -15.3049,-9.012 -18.0197,-17.34 -1.7031,0 -3.5742,0.172 -5.2735,0.34 1.3633,7.136 2.8907,14.109 4.254,21.25 3.5664,-0.176 7.3082,-0.34 10.8792,-0.34 14.613,0 29.066,0.504 43.679,0.504 4.762,0 9.524,-0.504 14.286,-1.016 -2.215,-6.797 -4.422,-13.769 -5.442,-20.906 l -5.437,0.672 c 0.336,2.219 0.504,4.258 0.504,6.465 0,9.855 -5.266,10.371 -13.598,10.371 -2.207,0 -4.418,0 -5.61,-2.215 -0.847,-1.699 -1.019,-11.731 -1.019,-14.102 v -34.336 c 0,-3.574 -0.508,-17.511 3.23,-18.703 2.207,-0.683 6.461,-0.34 8.84,-0.34 v -4.082 c -12.07,0.34 -24.136,0.34 -36.207,0 v 4.082" /><path
         id="path18"
         style="fill:#1c63b7;fill-opacity:1;fill-rule:nonzero;stroke:none"
         d="m 216.23,210.805 c -4.25,11.043 -8.667,21.922 -13.425,32.636 -5.442,-10.714 -9.86,-21.593 -14.785,-32.636 z m 30.43,-31.114 c -10.371,0.34 -21.078,0.52 -31.445,0 v 4.082 c 1.187,0 2.551,-0.168 3.738,-0.168 2.551,0 4.586,0.852 4.586,3.743 0,3.222 -4.246,16.14 -5.945,19.207 h -31.11 c -1.527,-4.082 -5.777,-12.41 -5.777,-16.492 0,-3.235 1.188,-5.266 4.422,-5.95 h -0.172 c 1.699,-0.164 3.227,-0.34 4.93,-0.34 l -0.512,-4.082 c -8.328,0.52 -16.824,0.34 -25.156,0 v 4.082 c 2.89,0 5.269,1.024 7.136,3.231 2.723,3.059 28.047,62.726 32.637,71.906 l 5.442,0.164 c 3.91,-10.535 24.476,-63.914 29.918,-71.394 2.039,-2.715 4.589,-3.907 7.988,-3.907 v -3.742 l -0.68,-0.34" /><path
         id="path20"
         style="fill:#1c63b7;fill-opacity:1;fill-rule:nonzero;stroke:none"
         d="m 274.539,219.133 h 4.934 c 13.086,0 23.457,3.058 23.457,18.183 0,5.95 -3.91,14.454 -10.2,16.153 -2.378,0.676 -5.441,0.676 -7.988,0.676 -2.043,0 -4.422,0.175 -6.461,-0.344 -4.418,-1.016 -3.742,-13.086 -3.742,-16.824 z m -23.113,-35.36 c 1.871,-0.168 3.57,-0.168 5.437,-0.168 6.629,0 5.27,11.047 5.27,15.469 v 34.504 c 0,3.055 0,15.809 -1.02,17.852 -1.699,3.23 -6.633,2.371 -9.687,2.371 v 4.082 c 4.078,-0.504 7.988,-0.672 12.066,-0.672 7.821,0 15.469,0.848 23.289,0.848 14.278,0 29.407,-3.399 29.407,-20.743 0,-13.261 -11.051,-18.699 -22.61,-20.562 7.988,-1.535 11.223,-4.758 15.133,-11.731 4.25,-7.644 10.195,-21.25 20.227,-21.25 v -4.082 c -4.758,0.34 -9.18,0 -13.938,0 -0.344,0 -0.852,0.176 -1.191,0.176 h 0.171 l -0.679,0.344 c -4.082,2.027 -5.781,3.394 -7.992,7.301 -2.039,3.742 -4.59,7.14 -6.625,10.879 h 0.164 c -4.754,8.496 -9.344,16.828 -20.395,16.828 -1.363,0 -2.551,-0.168 -3.914,-0.168 v -9.012 c 0,-2.891 -0.168,-20.734 2.387,-21.758 1.527,-0.676 6.625,-0.508 8.496,-0.508 v -4.082 c -11.391,0.34 -22.609,0.52 -33.996,0 v 4.082" /><path
         id="path22"
         style="fill:#1c63b7;fill-opacity:1;fill-rule:nonzero;stroke:none"
         d="m 372.633,182.238 c 19.551,0 25.84,18.535 25.84,35.02 0,17.168 -5.618,38.254 -26.516,38.254 -20.742,0 -26.348,-21.25 -26.348,-38.254 0,-17.168 7.141,-35.02 27.024,-35.02 z m -0.168,77.348 c 24.308,0 39.777,-17.68 39.777,-41.477 0,-23.964 -16.828,-40.117 -40.625,-40.117 -22.949,0 -39.781,15.809 -39.781,38.926 0,24.824 15.133,42.668 40.629,42.668" /><path
         id="path24"
         style="fill:#1c63b7;fill-opacity:1;fill-rule:nonzero;stroke:none"
         d="m 469.184,235.109 c 0.519,11.895 -5.946,19.719 -18.184,19.719 -7.312,0 -14.785,-2.89 -14.785,-11.387 0,-16.66 45.215,-18.191 45.215,-42.324 0,-15.812 -15.985,-22.609 -29.578,-22.609 -10.539,0 -22.266,1.703 -30.598,8.84 2.207,6.113 4.25,12.238 5.605,18.691 l 4.934,-0.676 c -0.168,-1.363 -0.168,-2.722 -0.168,-4.082 0,-12.754 9.18,-18.359 20.91,-18.359 7.988,0 18.016,3.906 18.016,13.262 0,20.91 -45.215,20.058 -45.215,43.339 0,15.649 16.828,19.719 29.406,19.719 8.496,0 16.317,-2.207 23.965,-5.605 -2.043,-6.125 -3.234,-12.578 -4.25,-18.867 l -5.273,0.339" /><path
         id="path26"
         style="fill:#1c63b7;fill-opacity:1;fill-rule:nonzero;stroke:none"
         d="m 505.063,183.773 c 2.375,0 4.933,0 7.304,0 5.781,0.176 4.59,16.493 4.59,20.227 v 29.578 c 0,2.383 -0.164,15.645 -0.848,17.168 -1.015,2.551 -3.742,2.723 -6.113,2.723 -9.863,0 -15.305,-9.012 -18.019,-17.34 -1.707,0 -3.575,0.172 -5.274,0.34 1.36,7.136 2.891,14.109 4.25,21.25 3.574,-0.176 7.313,-0.34 10.879,-0.34 14.617,0 29.07,0.504 43.68,0.504 4.765,0 9.523,-0.504 14.289,-1.016 -2.219,-6.797 -4.426,-13.769 -5.442,-20.906 l -5.437,0.672 c 0.332,2.219 0.508,4.258 0.508,6.465 0,9.855 -5.274,10.371 -13.606,10.371 -2.207,0 -4.414,0 -5.605,-2.215 -0.848,-1.699 -1.024,-11.731 -1.024,-14.102 v -34.336 c 0,-3.574 -0.507,-17.511 3.231,-18.703 2.207,-0.683 6.465,-0.34 8.84,-0.34 v -4.082 c -12.071,0.34 -24.133,0.34 -36.203,0 v 4.082" /><path
         id="path28"
         style="fill:#1c63b7;fill-opacity:1;fill-rule:nonzero;stroke:none"
         d="m 613.344,210.805 c -4.246,11.043 -8.672,21.922 -13.426,32.636 -5.441,-10.714 -9.863,-21.593 -14.785,-32.636 z m 30.429,-31.114 c -10.371,0.34 -21.082,0.52 -31.445,0 v 4.082 c 1.184,0 2.551,-0.168 3.742,-0.168 2.547,0 4.578,0.852 4.578,3.743 0,3.222 -4.246,16.14 -5.945,19.207 h -31.105 c -1.532,-4.082 -5.782,-12.41 -5.782,-16.492 0,-3.235 1.192,-5.266 4.426,-5.95 h -0.176 c 1.7,-0.164 3.231,-0.34 4.93,-0.34 l -0.508,-4.082 c -8.328,0.52 -16.824,0.34 -25.156,0 v 4.082 c 2.891,0 5.266,1.024 7.141,3.231 2.715,3.059 28.047,62.726 32.636,71.906 l 5.438,0.164 c 3.906,-10.535 24.473,-63.914 29.914,-71.394 2.039,-2.715 4.59,-3.907 7.988,-3.907 v -3.742 l -0.676,-0.34" /><path
         id="path30"
         style="fill:#1c63b7;fill-opacity:1;fill-rule:nonzero;stroke:none"
         d="m 132.59,82.6094 c 0,1.875 0,3.9179 -0.172,5.7812 -1.359,15.4684 -11.047,23.1174 -26.344,23.1174 -10.8787,0 -21.7576,-5.098 -21.7576,-17.3361 0,-7.8203 6.1172,-12.5781 12.2344,-16.3164 5.4412,-3.3985 11.2222,-6.4571 17.0002,-9.5196 15.133,-7.8164 34.168,-15.4726 34.168,-35.8711 C 147.719,10.3711 126.977,0 107.262,0 93.1563,0 76.6641,2.71875 65.7852,12.582 c 3.0625,8.668 5.2695,17.336 7.1406,26.3477 l 5.2695,-0.6836 c -0.1719,-1.6992 -0.3398,-3.5664 -0.3398,-5.4414 0,-18.3555 12.75,-27.36329 30.2535,-27.36329 2.211,0 4.418,0.16797 6.801,0.50781 9.86,1.53125 19.547,8.67188 19.547,19.55468 0,30.25 -63.2304,29.4024 -63.2304,63.0625 0,21.7576 21.7578,28.2146 39.9454,28.2146 11.898,0 21.93,-3.058 32.465,-8.164 -2.891,-8.496 -4.246,-17.4998 -5.782,-26.5154 l -5.265,0.5078" /><path
         id="path32"
         style="fill:#1c63b7;fill-opacity:1;fill-rule:nonzero;stroke:none"
         d="m 181.555,38.2461 v -9.8555 c 0,-5.6093 -0.168,-11.7304 0.511,-17.3398 0.168,-2.21096 0.676,-4.42189 3.227,-4.92189 1.699,-0.34766 3.57,-0.34766 5.273,-0.34766 14.45,0 26.176,2.04688 30.082,18.01955 l 4.762,-0.6797 C 224.391,16.3203 224.055,9.17969 223.883,2.21094 221.16,1.87109 218.441,1.87109 215.723,1.87109 h -57.114 v 4.07813 c 0.676,-0.16797 1.356,-0.16797 2.036,-0.16797 10.371,0 8.671,7.14065 8.671,15.30075 v 11.0508 c -3.57,-1.6992 -7.136,-3.5742 -10.878,-5.2734 v 6.4648 l 10.878,5.2617 v 18.8672 c 0,3.918 1.192,17.3438 -3.742,18.1953 -2.207,0.3321 -4.418,0.3321 -6.629,0.3321 v 3.914 c 11.731,-0.3398 23.629,-0.3398 35.356,0 v -3.914 c -2.375,0 -8.664,0.3398 -10.535,-0.8516 -2.551,-3.9062 -2.211,-24.9805 -2.211,-30.5937 8.5,3.914 16.66,7.9882 25.16,11.9023 v -6.2891 l -25.16,-11.9023" /><path
         id="path34"
         style="fill:#1c63b7;fill-opacity:1;fill-rule:nonzero;stroke:none"
         d="m 240.883,31.4492 v 8.1641 c 0,8.1523 0.512,16.3164 -0.168,24.3086 l -0.168,2.039 -0.344,3.7305 c 0,0.6836 -0.168,2.3828 -0.168,2.3828 -0.172,0 -0.172,-0.3437 0,-0.3437 -0.68,5.4414 -6.461,4.25 -10.539,4.25 v 3.914 c 11.387,-0.3398 22.777,-0.3398 34.164,0 v -3.914 c -1.867,0 -5.437,0 -7.137,-0.5078 -1.699,-0.5079 -2.382,-2.043 -2.718,-3.7422 -1.024,-4.2461 -0.852,-14.9492 -0.852,-19.5391 V 33.6563 c 0,-15.9766 4.59,-28.55474 22.777,-28.55474 18.7,0 23.629,12.75784 23.629,29.23824 v 24.6485 c 0,9.3476 -0.171,16.3164 -11.218,16.9922 v 3.914 c 9.007,-0.3398 18.359,-0.3398 27.367,0 v -3.914 c -7.309,-0.3321 -8.5,-3.3985 -9.688,-9.8516 -2.211,-12.2383 -1.535,-24.1445 -1.535,-36.7226 0,-20.39458 -11.555,-28.894581 -31.101,-28.894581 -20.911,0 -32.301,9.519581 -32.301,30.937481" /><path
         id="path36"
         style="fill:#1c63b7;fill-opacity:1;fill-rule:nonzero;stroke:none"
         d="m 349.176,40.9688 c 13.594,0 22.265,4.082 22.265,18.8671 0,10.375 -6.632,16.8282 -17.003,16.8282 -1.864,0 -7.137,-0.1641 -8.836,-0.8516 -3.907,-1.8633 -3.399,-13.4258 -3.399,-17.168 V 40.9688 Z M 318.91,6.12891 c 0.852,-0.17969 1.699,-0.34766 2.551,-0.34766 1.359,0 2.891,0 4.254,0.34766 4.926,1.17968 4.246,12.91019 4.246,16.82029 v 40.793 c 0,2.8906 -0.68,10.8828 -3.738,12.2383 h -7.141 v 3.914 c 5.609,-0.3398 11.387,-0.3398 16.996,-0.3398 5.617,0 11.223,0.6836 16.836,0.6836 14.102,0 31.613,-3.2344 31.613,-20.9102 0,-24.1406 -25.5,-22.4414 -42.668,-22.4414 v -9.1758 c 0,-2.7187 0.508,-17.85152 1.36,-19.38277 0.515,-1.01954 2.039,-2.37891 3.23,-2.37891 h 7.141 V 1.87109 c -11.555,0.33985 -23.121,0.33985 -34.68,0 v 4.25782" /><path
         id="path38"
         style="fill:#1c63b7;fill-opacity:1;fill-rule:nonzero;stroke:none"
         d="m 437.398,57.2891 c 0.508,11.8945 -5.949,19.7148 -18.195,19.7148 -7.305,0 -14.785,-2.8906 -14.785,-11.3867 0,-16.6563 45.215,-18.1914 45.215,-42.3281 0,-15.80863 -15.977,-22.597694 -29.578,-22.597694 -10.539,0 -22.266,1.699224 -30.598,8.828124 2.219,6.12107 4.258,12.24217 5.617,18.69527 l 4.93,-0.6718 c -0.176,-1.3672 -0.176,-2.7266 -0.176,-4.0821 0,-12.75 9.18,-18.35934 20.91,-18.35934 7.989,0 18.016,3.91016 18.016,13.25784 0,20.9101 -45.215,20.0625 -45.215,43.3437 0,15.6446 16.828,19.7188 29.406,19.7188 8.504,0 16.317,-2.211 23.973,-5.6094 -2.039,-6.1211 -3.23,-12.5781 -4.246,-18.8672 l -5.274,0.3438" /><path
         id="path40"
         style="fill:#1c63b7;fill-opacity:1;fill-rule:nonzero;stroke:none"
         d="M 481.43,38.5859 V 20.0586 c 0,-3.7383 -0.508,-12.07032 3.398,-13.92969 1.016,-0.51953 6.289,-0.51953 7.649,-0.51953 V 1.87109 c -11.387,0.33985 -22.774,0.33985 -34.161,0 v 4.07813 h 4.071 c 7.48,-0.16797 6.465,7.48048 6.465,12.92188 V 68.168 c 0,8.8359 -3.739,7.8125 -10.711,7.8125 v 3.914 c 11.386,-0.3398 22.949,-0.6836 34.336,0 v -3.914 h -6.633 c -5.098,0 -4.414,-16.6524 -4.414,-20.0508 V 43.3438 c 5.441,3.5742 33.828,24.9921 33.828,29.9218 0,2.8907 -5.274,2.7149 -7.313,2.7149 v 3.914 c 9.864,-0.3398 19.375,-0.3398 29.239,0 v -3.914 c -8.157,-0.168 -16.321,-7.4727 -22.266,-12.4024 -6.465,-5.4414 -13.43,-10.3711 -20.234,-15.4687 9.011,-10.2071 18.535,-19.8946 28.054,-29.5781 4.922,-5.1016 12.578,-12.58208 20.051,-12.58208 v -4.25 C 535.824,2.21094 528.512,2.89063 521.547,2.21094 510.836,16.3203 497.066,28.3906 484.828,41.1367 l -3.398,-2.5508" /><path
         id="path42"
         style="fill:#1c63b7;fill-opacity:1;fill-rule:nonzero;stroke:none"
         d="m 543.648,5.94922 c 2.547,0 5.098,-0.16797 7.645,0.33984 l 1.535,1.35938 h -0.168 c 1.36,2.89066 1.36,10.71096 1.36,14.11326 v 37.2266 c 0,3.7383 0.847,16.1406 -4.082,16.8242 -2.043,0.3438 -4.083,0.168 -6.125,0.168 v 3.914 c 10.878,-0.3398 22.101,-0.6836 32.98,0 v -3.914 c -1.867,0 -5.605,0.1758 -7.305,-0.5078 -3.574,-1.3594 -3.066,-15.1289 -3.066,-18.3594 V 24.4766 c 0,-3.0547 -0.508,-16.99613 3.066,-18.18754 1.192,-0.33984 5.946,-0.33984 7.305,-0.33984 V 1.87109 c -11.047,0.33985 -22.102,0.33985 -33.145,0 v 4.07813" /><path
         id="path44"
         style="fill:#1c63b7;fill-opacity:1;fill-rule:nonzero;stroke:none"
         d="m 358.461,512.152 c -37.973,26.078 -67.047,63.028 -77.078,124.614 193.301,26.828 246.894,143.839 197.871,316.836 182.273,-143.614 150.359,-294.204 98.008,-400.559 -77.5,8.605 -148.938,-6.352 -218.801,-40.891 z M 504.75,471.133 c -49.578,2.406 -92.664,9.316 -113.867,25.887 52.91,28.675 117.394,38.07 169.355,31.816 -15.683,-22.848 -34.715,-41.66 -55.488,-57.703 z m -393.172,23.508 c 65.629,-33.645 157.746,-42.422 241.152,-10.086 35.215,-19.407 77.782,-33.758 112.95,-40.5 -100.391,-54.532 -244.387,-57.422 -354.102,50.586 z m -49.9608,63.191 c -20.7149,40.566 -33.4297,81.563 -36.3438,122.18 22.8711,5.008 37.2813,23.98 52.4961,44.312 51.1715,-44.261 109.2965,-71.84 173.1255,-85.64 4.765,-56.625 32.043,-98.797 72.343,-135.098 C 259.285,475.469 145.52,481.469 61.6172,557.832 Z M 33.4961,775.195 c 11.5,-13.429 22.2187,-26.894 33.7031,-40.343 -16.0508,-22.211 -27.414,-34.489 -42.6953,-36.832 0.4844,24.05 2.2305,48.957 8.9922,77.175 z m 10.2109,32.93 c 16.5821,-13.645 23.4688,-29 19.3282,-45.207 -8.25,10.176 -24.0157,31.23 -24.4141,30.277 -0.4336,-0.929 5.1094,14.762 5.0859,14.93 z m 10.8282,25.449 C 87.6055,811.828 94.9766,772 84.7188,741.492 c -2.4297,2.153 -4.8516,4.281 -7.254,6.406 5.418,30.528 -1.5625,56.133 -28.5507,73.903 1.875,3.929 3.7461,7.824 5.6211,11.773 z m 170.0738,67.602 c -0.425,-6.254 -10.527,-7.387 -12.035,0 -0.019,0.043 12.09,-0.059 12.035,0 z M 276.617,667.23 C 280.574,795.059 354.73,867.07 452.633,921.242 502.789,813.301 442.418,667.348 276.617,667.23 Z m 192.5,291.083 C 369.215,914.895 283.715,833.66 257.504,738.828 c 3.473,51.43 7.976,106.445 11.488,157.871 0.035,5.047 -0.414,6.879 0.934,11.938 3.687,2.16 9.883,6.062 8.695,8.269 -19.672,0.34 -44.512,-0.207 -64.183,0.114 -13.368,-1.383 -18,-6.09 -19.321,-15.036 -21.469,1.059 -30.015,-3.597 -27.988,-15.761 12.402,-0.137 27.41,1.636 32.312,-2.871 1.735,-3.332 -0.461,-5.079 -6.336,-3.426 -3.851,2.293 -14.003,1.765 -24.398,-2.738 -4.629,-2.012 -13.086,1.71 -20.461,3.035 0.785,-4.532 5.738,-10.164 9.176,-11.836 5.105,-2.496 31.07,-0.551 40.574,-0.438 l -15.125,-11.34 30.762,-5.734 -69.223,-153.57 c -15.586,10.156 -32.262,22.605 -47.785,32.761 15.93,50.567 3.684,89.414 -32.3672,116.664 91.7262,163.63 286.1482,190.59 404.8592,111.583 z M 321.121,1024.29 C 144.496,1024.29 0.433594,880.238 0.433594,703.613 0.433594,527 144.496,382.953 321.121,382.953 c 176.578,0 320.652,144.047 320.652,320.66 0,176.625 -144.074,320.677 -320.652,320.677" /></g></g></svg>