<?xml version="1.0" encoding="UTF-8" standalone="no"?>
<svg
   xmlns:dc="http://purl.org/dc/elements/1.1/"
   xmlns:cc="http://creativecommons.org/ns#"
   xmlns:rdf="http://www.w3.org/1999/02/22-rdf-syntax-ns#"
   xmlns:svg="http://www.w3.org/2000/svg"
   xmlns="http://www.w3.org/2000/svg"
   viewBox="0 0 762.32001 243.34666"
   height="243.34666"
   width="762.32001"
   xml:space="preserve"
   id="svg2"
   version="1.1"><metadata
     id="metadata8"><rdf:RDF><cc:Work
         rdf:about=""><dc:format>image/svg+xml</dc:format><dc:type
           rdf:resource="http://purl.org/dc/dcmitype/StillImage" /></cc:Work></rdf:RDF></metadata><defs
     id="defs6" /><g
     transform="matrix(1.3333333,0,0,-1.3333333,0,243.34667)"
     id="g10"><g
       transform="scale(0.1)"
       id="g12"><path
         id="path14"
         style="fill:#393536;fill-opacity:1;fill-rule:nonzero;stroke:none"
         d="m 2531.87,905.07 c -25.09,22.633 -64.79,46.614 -119.57,72.692 -51.17,24.188 -89.27,47.898 -114.14,70.588 -12.41,11.32 -21.51,22.36 -27.41,32.92 -5.91,10.58 -8.66,20.59 -8.66,30.34 0.1,25.52 8.28,45.01 24.92,60.63 8.25,7.7 18.2,13.49 30.1,17.44 11.92,3.95 25.84,6.01 41.81,6.01 54.52,-0.03 106.18,-16.97 155.73,-51.38 l 8.61,-5.96 49.43,136.03 -4.65,3.61 c -46.33,35.78 -117.05,52.81 -211.91,52.86 -73.6,0.05 -134.93,-20.66 -182.58,-62.33 -23.76,-20.77 -41.83,-44.44 -53.82,-70.87 -12.03,-26.44 -18.02,-55.59 -18.01,-87.1 -0.01,-33.65 6.02,-64.61 18.13,-92.63 12.08,-27.982 29.47,-52.24 51.95,-72.553 11.47,-10.379 27.74,-21.687 49,-34.347 21.26,-12.637 47.51,-26.551 78.82,-41.809 61.86,-30.027 102.38,-57.371 120.76,-80 19.02,-23.359 28.1,-47.031 28.14,-71.941 -0.02,-13.391 -2.47,-24.661 -7.13,-34.168 -7.01,-14.161 -19.01,-24.872 -37.49,-32.442 -18.47,-7.519 -43.32,-11.531 -74.39,-11.519 -53.21,0 -107.59,18.668 -163.61,56.789 l -8.11,5.519 -59.8,-140.898 5.87,-3.653 c 62.3,-38.878 132.38,-58.367 209.54,-58.339 88.51,-0.028 160.17,20.992 213.94,63.722 26.77,21.27 47.11,45.688 60.65,73.16 13.61,27.481 20.34,57.93 20.34,91 0,36.489 -6.46,69.879 -19.53,99.899 -13.02,29.961 -32.09,56.269 -56.93,78.73" /><path
         id="path16"
         style="fill:#393536;fill-opacity:1;fill-rule:nonzero;stroke:none"
         d="m 3551.03,702.398 c -8.19,-18.199 -24.43,-34.937 -49.83,-49.82 -25.85,-15.09 -53.52,-22.566 -83.6,-22.59 -16.41,0 -30.42,2.211 -42.19,6.442 -17.62,6.429 -30.2,17.031 -38.98,32.75 -8.74,15.711 -13.43,36.871 -13.43,63.73 v 372.22 H 3168.18 V 722.641 c 0,-36.192 4.39,-68.121 13.31,-95.801 13.37,-41.481 37.33,-73.379 71.34,-94.371 34.03,-21.028 77.6,-31.207 130.36,-31.207 29.91,0 62.4,5.937 97.44,17.668 28.1,9.39 51.52,20.398 70.4,33.179 v -40.597 h 8.07 146.76 V 1105.13 H 3551.03 V 702.398" /><path
         id="path18"
         style="fill:#393536;fill-opacity:1;fill-rule:nonzero;stroke:none"
         d="m 4281.59,727.059 c -6.72,-22.45 -16.62,-40.329 -29.57,-54.098 -12.91,-13.68 -30.07,-24.102 -52.03,-31.191 -21.93,-7.079 -48.62,-10.731 -79.99,-10.731 -30.74,0.051 -57.08,8.633 -80.16,25.711 v 295.57 c 24.07,22.336 50.5,33.196 80.72,33.266 31.4,0 58.1,-3.445 80.06,-10.078 21.93,-6.684 39.06,-16.516 51.84,-29.305 12.69,-12.738 22.5,-30.398 29.18,-53.461 6.64,-23.027 10.09,-51.387 10.09,-84.961 0,-31.383 -3.46,-58.301 -10.14,-80.722 m 55.8,344.831 c -51.21,33.24 -99.56,44.02 -171.61,44.02 -46.03,0.05 -92.29,-13.38 -125.94,-39.98 v 29.2 H 3885.01 V 285.762 h 154.83 v 236.59 c 33.96,-14.02 71.12,-21.09 111.23,-21.09 92.06,-0.063 166,26.09 220.07,78.789 27.08,26.347 47.4,58.418 60.85,95.847 13.47,37.411 20.11,80.122 20.11,128.09 0,51.266 -6,96.387 -18.13,135.336 -18.15,58.418 -50.65,102.786 -96.58,132.566" /><path
         id="path20"
         style="fill:#393536;fill-opacity:1;fill-rule:nonzero;stroke:none"
         d="m 4849.76,865.363 c -26.01,9.942 -47.45,18.84 -64.24,26.7 -16.79,7.812 -28.99,14.64 -36.16,20 -7.33,5.48 -12.52,11.058 -15.82,16.582 -3.29,5.539 -4.8,10.996 -4.82,16.918 0,8.503 1.37,15.562 3.88,21.359 3.81,8.691 9.99,14.941 19.89,19.582 9.88,4.598 23.56,7.172 41.02,7.16 52.94,-0.027 93.11,-12.289 121.65,-35.941 l 8.64,-7.176 46.68,122.103 -6.57,3.24 c -55.58,27.54 -115.12,41.35 -178.21,41.33 -62.34,0.02 -114.41,-14.27 -155.36,-43.32 -20.58,-14.6 -36.29,-32.37 -46.74,-53.11 -10.46,-20.73 -15.6,-44.31 -15.58,-70.356 -0.06,-39.11 13.69,-74.461 40.51,-104.688 26.84,-30.266 66.46,-55.637 118.56,-76.644 23.37,-9.461 42.84,-18.293 58.37,-26.422 15.51,-8.078 27.08,-15.52 34.5,-21.899 7.36,-6.351 12.67,-13.39 16.26,-21.25 3.56,-7.851 5.4,-16.652 5.4,-26.609 0,-8.422 -1.52,-15.332 -4.28,-21.102 -4.19,-8.558 -11.18,-14.992 -22.47,-19.742 -11.27,-4.699 -26.79,-7.297 -46.4,-7.289 -50.63,0.039 -95.51,15.383 -135.76,46.391 l -8.02,6.179 -56.93,-123.629 6.82,-3.531 c 37.75,-19.59 68.82,-32.679 93.7,-39.25 24.96,-6.558 57.31,-9.687 97.43,-9.687 71.56,-0.012 129.14,15.617 171.94,47.75 21.35,16.066 37.66,35.34 48.5,57.668 10.82,22.32 16.17,47.57 16.17,75.41 0.03,41.808 -12.07,78.289 -36.28,108.172 -24.32,30.058 -63.21,54.789 -116.28,75.101" /><path
         id="path22"
         style="fill:#393536;fill-opacity:1;fill-rule:nonzero;stroke:none"
         d="m 5470.57,877.582 208.94,227.548 H 5490.59 L 5304.16,896.742 v 457.748 l -154.82,-36.07 V 512.031 h 154.82 v 197.668 l 57.37,58.93 171.61,-256.598 h 4.3 179.98 l -246.85,365.551" /><path
         id="path24"
         style="fill:#393536;fill-opacity:1;fill-rule:nonzero;stroke:none"
         d="m 2954.48,1096.66 v 257.83 l -154.8,-36.07 V 968.973 l -74.93,-47.395 v -113 l 74.93,48.496 V 636.461 c 0,-13.242 0.18,-24.539 0.74,-34.602 v -80.07 h 154.06 v 173.93 261.222 l 77.14,50.099 v 4.37 103.47 l -77.14,-48.48 v 30.26" /><path
         id="path26"
         style="fill:#393536;fill-opacity:1;fill-rule:nonzero;stroke:none"
         d="m 1551.77,798.09 h -0.11 c 0,-416 -337.23,-753.2189 -753.219,-753.2189 -411.211,0 -745.4683,329.5199 -753.0894,738.9099 -0.0977,4.75 -0.5,14.309 -0.5,14.309 v 15.801 966.369 H 1551.77 Z m 18.97,1027.02 H 25.8828 C 11.5938,1825.11 0,1813.52 0,1799.23 V 1780.26 807.699 798.09 C 0,796.078 0.503906,782.352 0.621094,777.441 3.15625,677.012 24.1328,579.551 63.1016,487.422 103.289,392.391 160.828,307.039 234.109,233.762 307.395,160.48 392.734,102.941 487.781,62.7383 586.191,21.1211 690.715,0 798.441,0 906.152,0 1010.68,21.1211 1109.1,62.7383 c 95.03,40.2027 180.38,97.7417 253.67,171.0237 73.27,73.277 130.81,158.629 171.01,253.66 41.2,97.406 62.3,200.816 62.73,307.359 0.08,1.098 0.11,2.188 0.11,3.309 v 1001.14 c 0,14.29 -11.58,25.88 -25.88,25.88 M 1260.01,340.68 c -0.03,-12.149 -9.96,-21.969 -22.24,-22.02 l -879.157,-0.25 c -12.269,0.031 -22.222,9.871 -22.25,22.012 0.028,12.137 9.981,21.988 22.25,22 l 879.157,0.238 c 12.28,-0.012 22.21,-9.84 22.24,-21.98 M 1042.36,194.75 c -0.02,-12.141 -9.96,-21.969 -22.24,-22 H 575.895 c -12.282,0.031 -22.235,9.859 -22.262,22 0.027,12.148 9.98,22 22.262,22.012 h 444.225 c 12.28,-0.012 22.22,-9.864 22.24,-22.012 m 7.08,341.879 -1.13,11.312 c -4.06,39.668 -13.26,77.18 -27.82,114.11 l -2.26,5.73 5.32,3.207 c 53.07,31.883 105.26,76.883 144.85,140.051 41.7,66.469 69.01,145.457 69.7,255.411 v 0.02 0.04 c 0.01,1.29 0.01,2.63 0.01,3.95 0,82.93 -17.29,143.67 -50.39,214.7 -33.03,70.89 -81.99,132.54 -145.2,177.65 l -4.25,2.39 v 134.68 12.6 l 11.07,-6.23 c 91.19,-51.3 169.39,-124.16 226.29,-211.56 63.24,-97.12 100.28,-192.41 100.29,-315.64 -0.01,-124.589 -36.57,-233.202 -99.66,-330.89 -54.57,-84.531 -129.08,-155.269 -216.85,-205.801 z m -50.006,171.41 -3.731,6.981 c -18.801,35.128 -42.328,70.57 -71.019,108.218 l -4.063,5.301 4.969,4.531 c 1.91,1.7 3.723,3.254 5.324,4.758 32.699,30.891 59.508,67.711 78.196,108.75 18.66,40.996 29.16,78.942 29.16,126.402 v 35 4.96 1.64 1.63 4.95 289.44 l 12.42,-11.27 c 40.27,-36.55 72.83,-81.6 96.64,-132.62 30.23,-64.8 46.29,-119.35 46.29,-196.25 0,-1.21 0,-2.5 -0.01,-3.77 -0.77,-106.284 -27.52,-178.049 -66.65,-238.112 -29.38,-45.019 -65.99,-79.5 -104.73,-106.039 -5.4,-3.711 -10.78,-7.008 -16.04,-10.269 z M 873.852,508.57 h -6.153 l -1.136,5.969 c -1.321,6.871 -3.95,14.922 -8.559,24.301 -6.52,13.148 -16.844,29.121 -33.402,48.859 l -8.086,9.653 -38.703,39.617 -2.469,2.312 c -25.766,24.418 -58.723,52.739 -100.985,85.59 l -17.789,13.84 22.625,-0.742 1.746,-0.059 c 72.551,0.039 141.321,22.078 198.883,59.711 l 5.785,3.809 4.215,-5.489 c 27.52,-36.23 49.59,-69.652 66.856,-102.011 l 3.664,-6.828 18.301,-40.172 2.785,-7.43 c 14.843,-39.52 22.75,-79.289 24.37,-123.34 l 0.28,-7.59 z M 555.676,879.527 c -8.016,-15.16 -19.516,-30.828 -35.449,-46.66 l -4.457,-4.379 -5.106,3.578 c -6.953,4.883 -13.633,10.063 -19.961,15.563 -23.531,20.57 -42.269,45.25 -55.219,73.34 -12.91,28.129 -20.086,59.687 -20.086,94.321 0,13.69 1.125,27.86 3.485,42.45 2.859,17.9 8.777,42.62 15.961,63.8 1.547,4.58 3.14,8.94 4.758,13.04 l 3.984,10.04 73.168,-67.27 0.226,-0.25 0.051,-0.05 c 3.399,-3.72 17.512,-19.91 30.512,-43.58 6.551,-11.87 12.77,-25.6 17.34,-40.458 4.558,-14.864 7.43,-30.813 7.43,-47.414 -0.024,-21.02 -4.547,-43.121 -16.637,-66.051 z M 298.621,654.5 H 190.172 c -12.281,-0.012 -22.219,-9.859 -22.25,-22 0.031,-12.148 9.969,-21.98 22.25,-22.012 h 123.922 l 206.496,164.211 4.312,-2.097 c 7.871,-3.864 15.981,-7.391 24.321,-10.641 l 0.832,-0.332 0.726,-0.5 c 129.074,-90.891 198.289,-154.051 234.371,-195.43 18.168,-20.777 27.86,-36 32.852,-46.148 l 0.059,-0.11 5.082,-10.871 H 249.57 c -12.281,-0.05 -22.215,-9.859 -22.246,-22.019 0.031,-12.153 9.965,-21.992 22.246,-22 h 595.043 183.857 316.95 c 12.27,0.008 22.21,9.847 22.24,22 -0.03,12.16 -9.97,21.969 -22.24,22.019 h -255.58 l 20.91,13.469 c 81.37,52.402 150.71,121.461 203,202.441 67.5,104.45 106.64,221.415 106.64,354.57 0,132.03 -39.77,235.69 -107.37,339.47 -67.61,103.82 -163.02,188.35 -274.7,243.51 -2.19,1.07 -14.82,6.67 -22.3,6.67 -12.28,0 -22.215,-9.86 -22.235,-22.01 v -525.53 -4.95 -1.63 -1.64 -4.96 -35 c 0,-41.02 -9.035,-72.7 -25.234,-108.343 -16.426,-36.149 -40.449,-68.629 -69.699,-95.965 l -5.84,-5.453 -5.039,6.187 -1.039,1.324 -0.371,0.418 c -39.551,45.43 -65.477,89.957 -81.614,132.632 -16.125,42.65 -22.515,83.56 -22.539,121.98 0,38.09 6.313,73.76 15.871,105.89 14.332,48.23 36,88.49 54.055,116.48 9.016,14 17.105,24.96 22.875,32.28 2.879,3.7 5.172,6.46 6.723,8.28 l -0.02,-0.02 c 0.766,0.91 1.34,1.58 1.731,2.03 l 0.347,0.39 0.012,0.01 0.012,0.02 0.132,0.16 c 3.657,4.07 5.633,9.18 5.641,14.6 v 226.11 c 0,35.39 -24.918,36.62 -24.918,36.62 l -14.101,0.21 c -16.547,0.13 -42.184,0 -63.129,0 -8.469,0 -16.137,0.08 -22.211,0 -3.02,-0.03 -5.649,-0.09 -7.848,-0.15 h 0.012 c -1.063,-0.03 -2.024,-0.07 -2.969,-0.1 l -1.871,-0.12 h -0.231 c -39.043,-0.15 -70.929,-5.1 -97.101,-13.89 -19.879,-6.68 -36.418,-15.63 -49.871,-26.19 l -0.008,-0.01 c -20.191,-15.79 -33.141,-35.33 -40.52,-54.46 -7.429,-19.26 -9.64,-38.15 -9.664,-54.37 0.039,-21.35 3.801,-38.12 5.852,-45.76 0.684,-2.45 1.102,-3.81 1.312,-4.47 3,-9.12 11.461,-15.2 21.149,-15.22 h 119.101 c 12.27,0.02 22.215,9.85 22.239,22.01 -0.024,12.14 -9.969,21.97 -22.239,22 H 601.371 l -0.695,6.54 c -0.504,4.43 -0.84,9.34 -0.84,14.58 l 0.008,0.24 -0.008,0.19 c 0.008,10.84 1.363,22.7 5.187,34.18 2.86,8.65 7.04,17.07 13.098,24.96 l 0.031,0.02 c 9.078,11.73 22.602,22.84 44.09,31.37 21.543,8.5 51.258,14.28 91.821,14.28 0.832,0.02 1.23,0.04 2.121,0.11 l 8.097,0.24 c 5.91,0.07 14.16,0.11 23.36,0.11 16.004,0 34.914,-0.11 50.304,-0.2 l 7.36,-0.05 v -210.73 l -1.645,-2.02 c -10.226,-12.61 -29.789,-38.56 -49.426,-74.98 -14,-26 -28.043,-57.29 -38.625,-92.86 -10.566,-35.55 -17.664,-75.4 -17.664,-118.31 v -0.11 c 0,-43.24 7.282,-89.56 25.325,-137.322 18.003,-47.578 46.703,-96.508 89.101,-145.308 l 0.109,-0.153 5.543,-6.859 -6.949,-4.391 C 801.352,800.199 742.535,781.93 680.922,781.93 c -41.688,0 -80.379,7.34 -114.57,20.582 l -9.829,3.847 6.977,7.84 c 13.16,14.789 23.625,29.809 31.613,44.969 15.469,29.254 21.68,58.816 21.68,86.16 v 0.156 0.153 c 0,23.402 -4.383,45.211 -10.793,64.693 -9.637,29.24 -23.777,53.27 -35.555,70.26 -11.722,16.86 -21.066,26.68 -21.84,27.5 l -1.132,1.1 -75.918,69.77 8.828,4.93 c 15.711,8.78 42.746,24.64 71.941,45.03 22.625,15.84 46.449,34.33 67.36,54.73 10.488,10.19 20.187,20.87 28.636,32.03 8.453,11.21 15.664,22.88 20.852,35.29 1.16,2.77 1.691,5.61 1.691,8.4 0,8.64 -5.172,16.86 -13.73,20.35 -2.813,1.15 -5.684,1.68 -8.488,1.68 -8.75,0 -16.454,-5.37 -20.575,-13.59 -3.136,-6.28 -14.257,-24.21 -14.257,-24.21 l -1.102,-1.56 v 0.01 c -11.871,-15.71 -28.277,-31.85 -46.289,-46.91 -27.008,-22.62 -57.406,-42.77 -80.91,-57.12 -11.75,-7.18 -21.789,-12.93 -28.852,-16.84 -3.539,-1.97 -6.289,-3.46 -8.168,-4.45 -0.929,-0.51 -1.652,-0.89 -2.031,-1.1 l -0.09,-0.04 -0.68,-0.35 -0.027,-0.02 c -0.684,-0.36 -1.562,-0.96 -2.719,-1.8 l -4.941,-3.62 -219.274,213.06 v 104.4 c -0.039,12.15 -9.98,21.99 -22.238,22.02 -12.289,-0.03 -22.25,-9.87 -22.258,-22.02 v -122.99 l 235.567,-228.6 -2.61,-4.97 c -2.25,-4.3 -4.347,-8.85 -6.41,-13.65 h 0.012 c -6.07,-14.32 -11.359,-30.56 -15.793,-46.7 -4.398,-16.17 -7.855,-32.08 -10.059,-45.71 -2.679,-16.71 -4,-33.09 -4,-49.08 v -0.26 -0.28 c 0,-40.54 8.473,-78.461 24.059,-112.282 17.754,-38.629 44.73,-71.789 78.375,-97.988 l 7.227,-5.648 L 298.621,654.5" /></g></g></svg>